<?xml version="1.0" encoding="UTF-8"?>
<svg id="OBJECTS" xmlns="http://www.w3.org/2000/svg" version="1.1" viewBox="0 0 173.87 171.06">
  <!-- Generator: Adobe Illustrator 29.5.1, SVG Export Plug-In . SVG Version: 2.1.0 Build 141)  -->
  <defs>
    <style>
      .st0 {
        fill: #e72555;
      }
    </style>
  </defs>
  <path class="st0" d="M147.85,13.53H26.02c-6.12,0-11.08,4.96-11.08,11.08v121.84c0,6.12,4.96,11.08,11.08,11.08h121.84c6.12,0,11.08-4.96,11.08-11.08V24.61c0-6.12-4.96-11.08-11.08-11.08h0ZM107.54,85.77h-13.23v46.93h0c-2.62.34-5.25.51-7.89.51-4.09,0-8.08-.41-11.94-1.18v-46.26h-9.91v-16.52h9.91v-9.92c0-13.48,5.59-21.49,21.49-21.49h13.23v16.52h-8.27c-6.19,0-6.6,2.31-6.6,6.62l-.02,8.27h14.98s-1.75,16.52-1.75,16.52Z"/>
</svg>