<?xml version="1.0" encoding="UTF-8"?>
<svg id="Capa_1" xmlns="http://www.w3.org/2000/svg" version="1.1" viewBox="0 0 291.06 111.83">
  <!-- Generator: Adobe Illustrator 29.5.1, SVG Export Plug-In . SVG Version: 2.1.0 Build 141)  -->
  <defs>
    <style>
      .st0, .st1 {
        fill: #fff;
      }

      .st1 {
        fill-rule: evenodd;
      }
    </style>
  </defs>
  <path class="st1" d="M56.97,10.74c12.47,0,23.76,5.05,31.94,13.23,8.17,8.17,13.23,19.47,13.23,31.94s-5.06,23.76-13.23,31.94c-8.18,8.17-19.47,13.23-31.94,13.23s-23.77-5.06-31.94-13.23c-8.18-8.18-13.23-19.47-13.23-31.94s5.05-23.77,13.23-31.94c8.17-8.18,19.47-13.23,31.94-13.23h0ZM59.45,55.59c0-.69-.26-1.38-.78-1.9h0c-.52-.53-1.2-.78-1.9-.78s-1.37.26-1.9.78c-.52.52-.78,1.21-.78,1.9s.26,1.37.78,1.9c.53.52,1.21.78,1.9.78s1.38-.26,1.9-.78h0c.53-.53.78-1.21.78-1.9h0ZM48.87,45.14c-.68,0-1.37.26-1.9.78-.52.53-.78,1.21-.78,1.9s.26,1.38.78,1.9c.53.53,1.21.78,1.9.78s1.38-.25,1.9-.78c.52-.52.78-1.21.78-1.9s-.26-1.37-.78-1.9c-.52-.52-1.21-.78-1.9-.78h0ZM43.62,54.02c-.48.48-.78,1.15-.78,1.9s.3,1.41.78,1.9h0c.48.48,1.15.78,1.89.78s1.41-.3,1.9-.78h0c.48-.48.78-1.16.78-1.9s-.3-1.41-.78-1.9h0c-.48-.48-1.15-.78-1.9-.78s-1.41.3-1.89.78h0ZM46.19,64c0,.69.26,1.38.78,1.91h0c.53.52,1.21.78,1.9.78s1.38-.26,1.9-.79h0c.52-.52.78-1.2.78-1.9s-.26-1.37-.78-1.89c-.52-.52-1.21-.79-1.9-.79s-1.37.26-1.9.79c-.52.53-.78,1.21-.78,1.89h0ZM55.07,69.25c.48.48,1.15.79,1.9.79s1.41-.3,1.9-.79h0c.48-.48.78-1.15.78-1.9s-.3-1.41-.78-1.89h0c-.48-.48-1.16-.79-1.9-.79s-1.41.3-1.9.79h-.01c-.48.48-.77,1.16-.77,1.89s.29,1.41.77,1.9h.01ZM65.06,66.68c.69,0,1.38-.26,1.9-.78.52-.53.79-1.21.79-1.91s-.26-1.37-.79-1.89h0c-.52-.52-1.2-.79-1.9-.79s-1.37.26-1.9.79c-.52.53-.79,1.21-.79,1.89s.26,1.38.79,1.91h0c.53.52,1.21.78,1.9.78h0ZM70.31,57.81c.48-.48.78-1.16.78-1.9s-.3-1.41-.78-1.9h0c-.48-.48-1.16-.78-1.9-.78s-1.41.3-1.9.78h-.01c-.48.48-.77,1.15-.77,1.9s.29,1.41.77,1.9h.01c.48.48,1.15.78,1.9.78s1.41-.3,1.9-.78h0ZM67.74,47.82c0-.68-.26-1.37-.79-1.9h0c-.52-.52-1.2-.78-1.9-.78s-1.37.26-1.9.78c-.52.53-.79,1.21-.79,1.9s.26,1.38.79,1.9c.53.53,1.21.78,1.9.78s1.38-.25,1.9-.77h0c.52-.53.79-1.21.79-1.91h0ZM58.87,42.57c-.48-.48-1.16-.78-1.9-.78s-1.41.29-1.9.78h-.01c-.48.49-.77,1.16-.77,1.91s.29,1.41.77,1.9h.01c.48.48,1.15.78,1.9.78s1.41-.3,1.9-.78h0c.48-.48.78-1.16.78-1.9s-.3-1.41-.78-1.9h0ZM34.64,24.42c-2.34,0-4.7.89-6.48,2.68-1.79,1.8-2.69,4.14-2.69,6.48s.9,4.7,2.69,6.48c1.79,1.8,4.14,2.69,6.48,2.69s4.7-.89,6.48-2.69c1.79-1.79,2.68-4.13,2.68-6.48s-.89-4.69-2.68-6.48c-1.79-1.79-4.14-2.68-6.48-2.68h0ZM18.91,49.43c-1.66,1.66-2.69,3.95-2.69,6.48s1.03,4.82,2.69,6.48c1.66,1.66,3.95,2.68,6.48,2.68s4.82-1.02,6.48-2.68c1.66-1.66,2.68-3.95,2.68-6.48s-1.02-4.82-2.68-6.48-3.96-2.69-6.48-2.69-4.82,1.03-6.48,2.69h0ZM25.47,78.25c0,2.34.9,4.69,2.69,6.48,1.79,1.79,4.14,2.68,6.48,2.68s4.7-.89,6.48-2.68c1.79-1.8,2.68-4.14,2.68-6.48s-.89-4.7-2.68-6.48c-1.79-1.8-4.14-2.69-6.48-2.69s-4.7.89-6.48,2.69c-1.79,1.79-2.69,4.13-2.69,6.48h0ZM50.48,93.97c1.66,1.66,3.95,2.68,6.48,2.68s4.82-1.02,6.48-2.68c1.66-1.66,2.68-3.95,2.68-6.48s-1.02-4.82-2.68-6.48c-1.66-1.66-3.96-2.69-6.48-2.69s-4.82,1.03-6.48,2.69c-1.66,1.66-2.69,3.95-2.69,6.48s1.03,4.82,2.69,6.48h0ZM79.29,87.41c2.35,0,4.7-.89,6.48-2.68,1.8-1.8,2.69-4.14,2.69-6.48s-.89-4.7-2.69-6.48c-1.79-1.8-4.13-2.69-6.48-2.69s-4.69.89-6.48,2.69c-1.79,1.79-2.68,4.13-2.68,6.48s.89,4.69,2.68,6.48c1.8,1.79,4.14,2.68,6.48,2.68h0ZM95.03,62.4c1.66-1.66,2.68-3.95,2.68-6.48s-1.02-4.82-2.68-6.48-3.96-2.69-6.48-2.69-4.82,1.03-6.48,2.69c-1.66,1.66-2.69,3.95-2.69,6.48s1.03,4.82,2.69,6.48c1.66,1.66,3.95,2.68,6.48,2.68s4.82-1.02,6.48-2.68h0ZM88.46,33.58c0-2.34-.89-4.69-2.69-6.48-1.79-1.79-4.13-2.68-6.48-2.68s-4.69.89-6.48,2.68c-1.79,1.8-2.68,4.14-2.68,6.48s.89,4.7,2.68,6.48c1.8,1.8,4.14,2.69,6.48,2.69s4.7-.89,6.48-2.69c1.8-1.79,2.69-4.13,2.69-6.48h0ZM63.45,17.85c-1.66-1.66-3.96-2.69-6.48-2.69s-4.82,1.03-6.48,2.69c-1.66,1.66-2.69,3.95-2.69,6.48s1.03,4.82,2.69,6.48c1.66,1.66,3.95,2.68,6.48,2.68s4.82-1.02,6.48-2.68c1.66-1.66,2.68-3.95,2.68-6.48s-1.02-4.82-2.68-6.48h0Z"/>
  <path class="st1" d="M106.92,69.16c0,.08-.03.16-.06.23v-.23h.06Z"/>
  <g>
    <path class="st0" d="M168.21,72.69c-.63-.41-1.37-.73-2.2-.98s-1.82-.37-2.95-.37c-2.01,0-3.69.62-5.05,1.86-1.36,1.24-2.03,2.87-2.03,4.9s.69,3.63,2.07,4.87c1.38,1.24,3.11,1.86,5.19,1.86,1.15,0,2.17-.11,3.05-.33.88-.22,1.64-.53,2.27-.92l-.44,4.68c-.63.36-1.41.64-2.32.84-.92.2-2.03.3-3.34.3-3.1,0-5.83-1.01-8.22-3.03-2.38-2.02-3.58-4.78-3.58-8.27s1.19-6.25,3.58-8.27,5.12-3.03,8.22-3.03c1.31,0,2.49.12,3.52.36,1.04.24,1.91.56,2.61.97l-.37,4.58Z"/>
    <path class="st0" d="M171.12,88.93v-21.62h5.25v21.62h-5.25Z"/>
    <path class="st0" d="M197.45,89.17l-8.4-9.22c-.54-.61-1.19-1.35-1.93-2.22s-1.45-1.71-2.1-2.53l.03,4.58v9.15h-5.25v-21.62h4.24l7.32,8.07c.5.56,1.08,1.23,1.75,2,.67.77,1.26,1.48,1.78,2.14l-.03-4.07v-8.13h5.25v21.86h-2.64Z"/>
    <path class="st0" d="M203.18,88.93v-21.62h12.61v4.3h-7.35v4.3h6v4.37h-6v4.34h8.3v4.3h-13.56Z"/>
    <path class="st0" d="M225.62,88.93v-21.62h12.61v4.3h-7.35v4.3h6v4.37h-6v4.34h8.3v4.3h-13.56Z"/>
    <path class="st0" d="M257.95,72.69c-.63-.41-1.37-.73-2.2-.98s-1.82-.37-2.95-.37c-2.01,0-3.69.62-5.05,1.86s-2.03,2.87-2.03,4.9.69,3.63,2.07,4.87c1.38,1.24,3.11,1.86,5.19,1.86,1.15,0,2.17-.11,3.05-.33s1.64-.53,2.27-.92l-.44,4.68c-.63.36-1.41.64-2.32.84-.92.2-2.03.3-3.34.3-3.1,0-5.83-1.01-8.22-3.03-2.38-2.02-3.58-4.78-3.58-8.27s1.19-6.25,3.58-8.27,5.12-3.03,8.22-3.03c1.31,0,2.49.12,3.53.36,1.04.24,1.91.56,2.61.97l-.37,4.58Z"/>
    <path class="st0" d="M269.88,89.4c-2.67,0-4.89-.72-6.68-2.15-1.79-1.43-2.68-3.34-2.68-5.71v-14.23h5.25v13.76c0,1.11.38,2.01,1.14,2.69.76.69,1.77,1.03,3.03,1.03s2.28-.34,3.05-1.02c.77-.68,1.15-1.58,1.15-2.71v-13.76h5.12v14.23c0,2.35-.9,4.25-2.69,5.69-1.8,1.45-4.03,2.17-6.69,2.17Z"/>
  </g>
  <path class="st0" d="M108.62,56.47c-.02,1.55-.09,3.1-.24,4.62.4-.09.79-.18,1.19-.27v5.32c-.68.14-1.37.3-2.05.45-1.86,8.9-6.05,17.14-12.26,24v2.68c-1.2.32-2.41.63-3.61.93-2.83,2.56-5.9,4.77-9.14,6.62,20.76-3.88,41.53-14.52,62.29-3.54v-38.02c-12.06-6.38-24.12-5.45-36.18-2.81ZM109.57,89.72c-4.03.85-8.07,1.92-12.1,2.99v-4.57c4.03-1.07,8.07-2.13,12.1-2.98v4.56ZM123.88,87.92c-4.03.06-8.07.57-12.11,1.35v-4.56c4.03-.78,8.08-1.3,12.11-1.36v4.57ZM123.88,64.34c-4.03.06-8.08.58-12.11,1.36v-5.32c4.03-.78,8.07-1.3,12.11-1.35v5.31ZM138.19,89.93c-4.03-1.31-8.08-1.91-12.11-2.01v-4.56c4.03.11,8.08.71,12.11,2.02v4.55ZM138.19,66.37c-4.03-1.31-8.08-1.91-12.11-2.02v-5.32c4.03.1,8.08.7,12.11,2.01v5.33Z"/>
</svg>