<?xml version="1.0" encoding="UTF-8"?>
<svg id="OBJECTS" xmlns="http://www.w3.org/2000/svg" version="1.1" viewBox="0 0 173.87 171.06">
  <!-- Generator: Adobe Illustrator 29.5.1, SVG Export Plug-In . SVG Version: 2.1.0 Build 141)  -->
  <defs>
    <style>
      .st0 {
        fill: #e72555;
      }
    </style>
  </defs>
  <path class="st0" d="M147.85,13.53H26.02c-6.12,0-11.08,4.96-11.08,11.08v121.84c0,6.12,4.96,11.08,11.08,11.08h121.84c6.12,0,11.08-4.96,11.08-11.08V24.61c0-6.12-4.96-11.08-11.08-11.08h0ZM128.3,77.05s-5.75-.24-10.03-1.37c-5.95-1.59-9.77-4.04-9.77-4.04,0,0-2.65-1.75-2.85-1.87v33.63c0,1.87-.5,6.55-1.98,10.45-1.3,3.33-3.16,6.42-5.5,9.13,0,0-3.66,4.54-10.09,7.58-5.79,2.75-10.9,2.68-12.42,2.75,0,0-8.8.35-16.73-5.04l-.04-.04v.04c-2.68-1.87-5.08-4.13-7.1-6.7-2.51-3.2-4.05-7-4.45-8.12v-.04c-.63-1.89-1.96-6.47-1.76-10.88.32-7.78,2.93-12.58,3.62-13.77,1.82-3.27,4.19-6.2,7.02-8.66,6.52-5.47,15.03-7.95,23.46-6.86l-.02,16.69c-1.37-.45-2.81-.68-4.26-.67-7.64,0-13.83,6.23-13.83,13.92s6.19,13.92,13.83,13.92c2.38,0,4.72-.61,6.78-1.79,4.03-2.29,6.65-6.43,7-11.05v-.04s.01-.1.01-.14c0-.11.02-.21.02-.31.04-.83.04-1.67.04-2.52v-63.39h16.39s-.2,1.57.22,4h-.02c.5,2.93,1.84,7.1,5.44,11.22,1.44,1.56,3.06,2.93,4.83,4.1.61.4,1.23.76,1.88,1.09,4.19,2.09,8.29,2.73,10.3,2.51v16.27h0Z"/>
</svg>