<?xml version="1.0" encoding="UTF-8"?>
<svg id="OBJECTS" xmlns="http://www.w3.org/2000/svg" version="1.1" viewBox="0 0 173.87 171.06">
  <!-- Generator: Adobe Illustrator 29.5.1, SVG Export Plug-In . SVG Version: 2.1.0 Build 141)  -->
  <defs>
    <style>
      .st0 {
        fill: #e72555;
      }
    </style>
  </defs>
  <path class="st0" d="M125.97,56c-.8-2.17-2.08-4.14-3.75-5.76-1.61-1.66-3.58-2.94-5.76-3.75-1.76-.69-4.42-1.5-9.3-1.72-5.28-.24-6.86-.29-20.23-.29h0c-13.37,0-14.95.05-20.23.29-4.88.22-7.53,1.04-9.3,1.72-2.17.8-4.14,2.08-5.76,3.75-1.66,1.62-2.94,3.58-3.75,5.76-.69,1.76-1.5,4.42-1.72,9.3-.24,5.28-.29,6.86-.29,20.23s.05,14.95.29,20.23c.22,4.88,1.04,7.53,1.72,9.3.8,2.17,2.08,4.14,3.75,5.76,1.61,1.66,3.58,2.94,5.76,3.75,1.76.69,4.42,1.5,9.3,1.72,5.28.24,6.86.29,20.23.29s14.95-.05,20.23-.29c4.88-.22,7.53-1.04,9.3-1.72,4.37-1.68,7.82-5.14,9.5-9.5.69-1.76,1.5-4.42,1.72-9.3.24-5.28.29-6.86.29-20.23s-.05-14.95-.29-20.23c-.22-4.88-1.04-7.53-1.72-9.3h0ZM86.94,111.24c-14.2,0-25.71-11.51-25.71-25.71s11.51-25.71,25.71-25.71,25.71,11.51,25.71,25.71-11.51,25.71-25.71,25.71ZM113.66,64.81c-3.32,0-6.01-2.69-6.01-6.01s2.69-6.01,6.01-6.01,6.01,2.69,6.01,6.01-2.69,6.01-6.01,6.01Z"/>
  <circle class="st0" cx="86.93" cy="85.54" r="16.69"/>
  <path class="st0" d="M147.85,13.53H26.02c-6.12,0-11.08,4.96-11.08,11.08v121.84c0,6.12,4.96,11.08,11.08,11.08h121.84c6.12,0,11.08-4.96,11.08-11.08V24.61c0-6.12-4.96-11.08-11.08-11.08h0ZM136.7,106.17c-.24,5.33-1.09,8.97-2.33,12.15-2.6,6.73-7.92,12.04-14.64,14.64-3.18,1.24-6.82,2.08-12.15,2.33-5.34.24-7.05.3-20.64.3s-15.3-.06-20.64-.3c-5.33-.24-8.97-1.09-12.15-2.33-3.34-1.26-6.37-3.23-8.87-5.77-2.55-2.5-4.52-5.53-5.77-8.87-1.24-3.18-2.08-6.82-2.33-12.15-.24-5.34-.3-7.04-.3-20.64s.06-15.3.3-20.64c.24-5.33,1.09-8.97,2.33-12.15,1.26-3.34,3.23-6.37,5.78-8.87,2.5-2.55,5.53-4.52,8.87-5.77,3.18-1.24,6.82-2.08,12.15-2.33,5.34-.24,7.04-.3,20.64-.3h0c13.6,0,15.3.06,20.64.3,5.33.24,8.97,1.09,12.15,2.33,3.34,1.26,6.37,3.23,8.87,5.78,2.55,2.5,4.52,5.53,5.77,8.87,1.24,3.18,2.08,6.82,2.33,12.15.24,5.34.3,7.05.3,20.64s-.06,15.3-.3,20.64h0Z"/>
  <polygon class="st0" points="86.94 35.47 86.94 35.47 86.94 35.47 86.94 35.47"/>
</svg>